<svg class="toyplot-canvas-Canvas" xmlns:toyplot="http://www.sandia.gov/toyplot" xmlns:xlink="http://www.w3.org/1999/xlink" xmlns="http://www.w3.org/2000/svg" width="600.0px" height="600.0px" viewBox="0 0 600.0 600.0" preserveAspectRatio="xMidYMid meet" style="background-color:transparent;border-color:#292724;border-style:none;border-width:1.0;fill:rgb(16.1%,15.3%,14.1%);fill-opacity:1.0;font-family:Helvetica;font-size:12px;opacity:1.0;stroke:rgb(16.1%,15.3%,14.1%);stroke-opacity:1.0;stroke-width:1.0" id="t755d449b3606428ebb4a8403614e0cf7"><g class="toyplot-coordinates-Cartesian" id="t6760fdaf9a654afab1c986512366991e"><clipPath id="tec08acce726f4c82aa18b01ed805c63a"><rect x="30.0" y="30.0" width="540.0" height="540.0" /></clipPath><g clip-path="url(#tec08acce726f4c82aa18b01ed805c63a)"><g class="toytree-mark-Toytree" id="tff48b818a5d140f9abd467ae6a359154"><g class="toytree-Edges" style="fill:none;stroke:rgb(14.9%,14.9%,14.9%);stroke-linecap:round;stroke-opacity:1;stroke-width:2"><path d="M 50.0 164.3 L 50.0 266.5 L 207.8 266.5" id="35,34" /><path d="M 207.8 266.5 L 207.8 151.2 L 321.8 151.2" id="34,33" /><path d="M 207.8 266.5 L 207.8 381.8 L 318.1 381.8" id="34,32" /><path d="M 321.8 151.2 L 321.8 108.3 L 376.8 108.3" id="33,31" /><path d="M 321.8 151.2 L 321.8 194.2 L 334.8 194.2" id="33,30" /><path d="M 318.1 381.8 L 318.1 323.1 L 340.0 323.1" id="32,29" /><path d="M 318.1 381.8 L 318.1 440.5 L 363.0 440.5" id="32,28" /><path d="M 376.8 108.3 L 376.8 128.1 L 376.8 128.1" id="31,27" /><path d="M 334.8 194.2 L 334.8 220.7 L 337.7 220.7" id="30,26" /><path d="M 340.0 323.1 L 340.0 346.3 L 342.9 346.3" id="29,25" /><path d="M 363.0 440.5 L 363.0 475.2 L 365.9 475.2" id="28,24" /><path d="M 337.7 220.7 L 337.7 247.1 L 337.7 247.1" id="26,23" /><path d="M 342.9 346.3 L 342.9 366.1 L 345.8 366.1" id="25,22" /><path d="M 365.9 475.2 L 365.9 445.4 L 365.9 445.4" id="24,21" /><path d="M 365.9 475.2 L 365.9 504.9 L 374.7 504.9" id="24,20" /><path d="M 374.7 504.9 L 374.7 524.8 L 389.6 524.8" id="20,19" /><path d="M 50.0 164.3 L 50.0 62.0 L 207.8 62.0" id="35,18" /><path d="M 376.8 108.3 L 376.8 88.4 L 382.7 88.4" id="31,17" /><path d="M 376.8 128.1 L 376.8 114.9 L 385.7 114.9" id="27,16" /><path d="M 376.8 128.1 L 376.8 141.3 L 379.8 141.3" id="27,15" /><path d="M 334.8 194.2 L 334.8 167.8 L 340.1 167.8" id="30,14" /><path d="M 337.7 220.7 L 337.7 194.2 L 340.6 194.2" id="26,13" /><path d="M 337.7 247.1 L 337.7 220.7 L 337.7 220.7" id="23,12" /><path d="M 337.7 247.1 L 337.7 247.1 L 337.7 247.1" id="23,11" /><path d="M 337.7 247.1 L 337.7 273.6 L 337.7 273.6" id="23,10" /><path d="M 340.0 323.1 L 340.0 300.0 L 340.0 300.0" id="29,9" /><path d="M 342.9 346.3 L 342.9 326.4 L 342.9 326.4" id="25,8" /><path d="M 345.8 366.1 L 345.8 352.9 L 351.7 352.9" id="22,7" /><path d="M 345.8 366.1 L 345.8 379.3 L 345.8 379.3" id="22,6" /><path d="M 363.0 440.5 L 363.0 405.8 L 363.0 405.8" id="28,5" /><path d="M 365.9 445.4 L 365.9 432.2 L 365.9 432.2" id="21,4" /><path d="M 365.9 445.4 L 365.9 458.7 L 368.8 458.7" id="21,3" /><path d="M 374.7 504.9 L 374.7 485.1 L 389.6 485.1" id="20,2" /><path d="M 389.6 524.8 L 389.6 511.6 L 389.6 511.6" id="19,1" /><path d="M 389.6 524.8 L 389.6 538.0 L 392.6 538.0" id="19,0" /></g><g class="toytree-AlignEdges" style="stroke:rgb(66.3%,66.3%,66.3%);stroke-dasharray:2, 4;stroke-linecap:round;stroke-opacity:1.0;stroke-width:2"><path d="M 392.6 538.0 L 392.6 538.0" /><path d="M 392.6 511.6 L 389.6 511.6" /><path d="M 392.6 485.1 L 389.6 485.1" /><path d="M 392.6 458.7 L 368.8 458.7" /><path d="M 392.6 432.2 L 365.9 432.2" /><path d="M 392.6 405.8 L 363.0 405.8" /><path d="M 392.6 379.3 L 345.8 379.3" /><path d="M 392.6 352.9 L 351.7 352.9" /><path d="M 392.6 326.4 L 342.9 326.4" /><path d="M 392.6 300.0 L 340.0 300.0" /><path d="M 392.6 273.6 L 337.7 273.6" /><path d="M 392.6 247.1 L 337.7 247.1" /><path d="M 392.6 220.7 L 337.7 220.7" /><path d="M 392.6 194.2 L 340.6 194.2" /><path d="M 392.6 167.8 L 340.1 167.8" /><path d="M 392.6 141.3 L 379.8 141.3" /><path d="M 392.6 114.9 L 385.7 114.9" /><path d="M 392.6 88.4 L 382.7 88.4" /><path d="M 392.6 62.0 L 207.8 62.0" /></g><g class="toytree-Nodes" style="fill:rgb(40%,76.1%,64.7%);fill-opacity:1.0;stroke:None;stroke-width:1"><g id="node-0" transform="translate(392.565,538.005)"><rect x="-4.0" y="-4.0" width="8" height="8" /></g><g id="node-1" transform="translate(389.645,511.560)"><rect x="-4.0" y="-4.0" width="8" height="8" /></g><g id="node-2" transform="translate(389.619,485.115)"><rect x="-4.0" y="-4.0" width="8" height="8" /></g><g id="node-3" transform="translate(368.849,458.670)"><rect x="-4.0" y="-4.0" width="8" height="8" /></g><g id="node-4" transform="translate(365.938,432.225)"><rect x="-4.0" y="-4.0" width="8" height="8" /></g><g id="node-5" transform="translate(363.024,405.780)"><rect x="-4.0" y="-4.0" width="8" height="8" /></g><g id="node-6" transform="translate(345.804,379.335)"><rect x="-4.0" y="-4.0" width="8" height="8" /></g><g id="node-7" transform="translate(351.665,352.890)"><rect x="-4.0" y="-4.0" width="8" height="8" /></g><g id="node-8" transform="translate(342.883,326.445)"><rect x="-4.0" y="-4.0" width="8" height="8" /></g><g id="node-9" transform="translate(339.962,300.000)"><rect x="-4.0" y="-4.0" width="8" height="8" /></g><g id="node-10" transform="translate(337.651,273.555)"><rect x="-4.0" y="-4.0" width="8" height="8" /></g><g id="node-11" transform="translate(337.651,247.110)"><rect x="-4.0" y="-4.0" width="8" height="8" /></g><g id="node-12" transform="translate(337.651,220.665)"><rect x="-4.0" y="-4.0" width="8" height="8" /></g><g id="node-13" transform="translate(340.573,194.220)"><rect x="-4.0" y="-4.0" width="8" height="8" /></g><g id="node-14" transform="translate(340.128,167.775)"><rect x="-4.0" y="-4.0" width="8" height="8" /></g><g id="node-15" transform="translate(379.756,141.330)"><rect x="-4.0" y="-4.0" width="8" height="8" /></g><g id="node-16" transform="translate(385.662,114.885)"><rect x="-4.0" y="-4.0" width="8" height="8" /></g><g id="node-17" transform="translate(382.711,88.440)"><rect x="-4.0" y="-4.0" width="8" height="8" /></g><g id="node-18" transform="translate(207.767,61.995)"><rect x="-4.0" y="-4.0" width="8" height="8" /></g><g id="node-19" transform="translate(389.645,524.782)"><rect x="0.0" y="0.0" width="0" height="0" /></g><g id="node-20" transform="translate(374.684,504.948)"><rect x="0.0" y="0.0" width="0" height="0" /></g><g id="node-21" transform="translate(365.938,445.447)"><rect x="0.0" y="0.0" width="0" height="0" /></g><g id="node-22" transform="translate(345.804,366.112)"><rect x="0.0" y="0.0" width="0" height="0" /></g><g id="node-23" transform="translate(337.651,247.110)"><rect x="0.0" y="0.0" width="0" height="0" /></g><g id="node-24" transform="translate(365.938,475.198)"><rect x="0.0" y="0.0" width="0" height="0" /></g><g id="node-25" transform="translate(342.883,346.279)"><rect x="0.0" y="0.0" width="0" height="0" /></g><g id="node-26" transform="translate(337.651,220.665)"><rect x="0.0" y="0.0" width="0" height="0" /></g><g id="node-27" transform="translate(376.809,128.108)"><rect x="0.0" y="0.0" width="0" height="0" /></g><g id="node-28" transform="translate(363.024,440.489)"><rect x="0.0" y="0.0" width="0" height="0" /></g><g id="node-29" transform="translate(339.962,323.139)"><rect x="0.0" y="0.0" width="0" height="0" /></g><g id="node-30" transform="translate(334.766,194.220)"><rect x="0.0" y="0.0" width="0" height="0" /></g><g id="node-31" transform="translate(376.809,108.274)"><rect x="0.0" y="0.0" width="0" height="0" /></g><g id="node-32" transform="translate(318.050,381.814)"><rect x="0.0" y="0.0" width="0" height="0" /></g><g id="node-33" transform="translate(321.821,151.247)"><rect x="0.0" y="0.0" width="0" height="0" /></g><g id="node-34" transform="translate(207.767,266.531)"><rect x="0.0" y="0.0" width="0" height="0" /></g><g id="node-35" transform="translate(50.000,164.263)"><rect x="0.0" y="0.0" width="0" height="0" /></g></g><g class="toytree-TipLabels" style="fill:rgb(14.9%,14.9%,14.9%);fill-opacity:1.0;font-family:helvetica;font-size:11px;font-weight:normal;stroke:none;white-space:pre"><g transform="translate(392.56,538.00)rotate(0)"><text x="15.00" y="2.81" style="fill:rgb(100%,0%,0%);fill-opacity:1.0">Pongo_abelii5</text></g><g transform="translate(392.56,511.56)rotate(0)"><text x="15.00" y="2.81" style="fill:rgb(100%,0%,0%);fill-opacity:1.0">Pongo_abelii4</text></g><g transform="translate(392.56,485.11)rotate(0)"><text x="15.00" y="2.81" style="fill:rgb(100%,0%,0%);fill-opacity:1.0">Pongo_abelii6</text></g><g transform="translate(392.56,458.67)rotate(0)"><text x="15.00" y="2.81" style="fill:rgb(100%,0%,0%);fill-opacity:1.0">Pongo_abelii3</text></g><g transform="translate(392.56,432.22)rotate(0)"><text x="15.00" y="2.81" style="fill:rgb(100%,0%,0%);fill-opacity:1.0">Pongo_abelii1</text></g><g transform="translate(392.56,405.78)rotate(0)"><text x="15.00" y="2.81" style="fill:rgb(100%,0%,0%);fill-opacity:1.0">Pongo_abelii2</text></g><g transform="translate(392.56,379.33)rotate(0)"><text x="15.00" y="2.81" style="fill:rgb(64.7%,16.5%,16.5%);fill-opacity:1.0">Pongo_pygmaeus_pygmaeus1</text></g><g transform="translate(392.56,352.89)rotate(0)"><text x="15.00" y="2.81" style="fill:rgb(64.7%,16.5%,16.5%);fill-opacity:1.0">Pongo_pygmaeus_pygmaeus4</text></g><g transform="translate(392.56,326.44)rotate(0)"><text x="15.00" y="2.81" style="fill:rgb(64.7%,16.5%,16.5%);fill-opacity:1.0">Pongo_pygmaeus_pygmaeus3</text></g><g transform="translate(392.56,300.00)rotate(0)"><text x="15.00" y="2.81" style="fill:rgb(64.7%,16.5%,16.5%);fill-opacity:1.0">Pongo_pygmaeus_pygmaeus2</text></g><g transform="translate(392.56,273.56)rotate(0)"><text x="15.00" y="2.81" style="fill:rgb(0%,0%,54.5%);fill-opacity:1.0">Pan_troglodytes5</text></g><g transform="translate(392.56,247.11)rotate(0)"><text x="15.00" y="2.81" style="fill:rgb(0%,0%,54.5%);fill-opacity:1.0">Pan_troglodytes4</text></g><g transform="translate(392.56,220.67)rotate(0)"><text x="15.00" y="2.81" style="fill:rgb(0%,0%,54.5%);fill-opacity:1.0">Pan_troglodytes3</text></g><g transform="translate(392.56,194.22)rotate(0)"><text x="15.00" y="2.81" style="fill:rgb(0%,0%,54.5%);fill-opacity:1.0">Pan_troglodytes1</text></g><g transform="translate(392.56,167.78)rotate(0)"><text x="15.00" y="2.81" style="fill:rgb(0%,0%,54.5%);fill-opacity:1.0">Pan_troglodytes6</text></g><g transform="translate(392.56,141.33)rotate(0)"><text x="15.00" y="2.81" style="fill:rgb(0%,0%,100%);fill-opacity:1.0">Pan_paniscus3</text></g><g transform="translate(392.56,114.89)rotate(0)"><text x="15.00" y="2.81" style="fill:rgb(0%,0%,100%);fill-opacity:1.0">Pan_paniscus2</text></g><g transform="translate(392.56,88.44)rotate(0)"><text x="15.00" y="2.81" style="fill:rgb(0%,0%,100%);fill-opacity:1.0">Pan_paniscus1</text></g><g transform="translate(392.56,62.00)rotate(0)"><text x="15.00" y="2.81" style="fill:rgb(32.5%,51.8%,63.9%);fill-opacity:1.0">Macaca_fascicularis</text></g></g></g></g><g class="toyplot-coordinates-Axis" id="t29f5789d1d754ba7b852722c00eefe33" transform="translate(50.0,550.0)translate(0,20.0)"><line x1="0" y1="0" x2="342.56491506149564" y2="0" style="" /><g><line x1="342.56491506149564" y1="0" x2="342.56491506149564" y2="-5" style="" /><line x1="274.0519320491965" y1="0" x2="274.0519320491965" y2="-5" style="" /><line x1="205.5389490368974" y1="0" x2="205.5389490368974" y2="-5" style="" /><line x1="137.0259660245983" y1="0" x2="137.0259660245983" y2="-5" style="" /><line x1="68.51298301229915" y1="0" x2="68.51298301229915" y2="-5" style="" /><line x1="0.0" y1="0" x2="0.0" y2="-5" style="" /></g><g><g transform="translate(342.56491506149564,6)"><text x="-9.729999999999999" y="8.555" style="fill:rgb(16.1%,15.3%,14.1%);fill-opacity:1.0;font-family:helvetica;font-size:10.0px;font-weight:normal;stroke:none;vertical-align:baseline;white-space:pre">0.00</text></g><g transform="translate(274.0519320491965,6)"><text x="-9.729999999999999" y="8.555" style="fill:rgb(16.1%,15.3%,14.1%);fill-opacity:1.0;font-family:helvetica;font-size:10.0px;font-weight:normal;stroke:none;vertical-align:baseline;white-space:pre">0.06</text></g><g transform="translate(205.5389490368974,6)"><text x="-9.729999999999999" y="8.555" style="fill:rgb(16.1%,15.3%,14.1%);fill-opacity:1.0;font-family:helvetica;font-size:10.0px;font-weight:normal;stroke:none;vertical-align:baseline;white-space:pre">0.11</text></g><g transform="translate(137.0259660245983,6)"><text x="-9.729999999999999" y="8.555" style="fill:rgb(16.1%,15.3%,14.1%);fill-opacity:1.0;font-family:helvetica;font-size:10.0px;font-weight:normal;stroke:none;vertical-align:baseline;white-space:pre">0.17</text></g><g transform="translate(68.51298301229915,6)"><text x="-9.729999999999999" y="8.555" style="fill:rgb(16.1%,15.3%,14.1%);fill-opacity:1.0;font-family:helvetica;font-size:10.0px;font-weight:normal;stroke:none;vertical-align:baseline;white-space:pre">0.23</text></g><g transform="translate(0.0,6)"><text x="-9.729999999999999" y="8.555" style="fill:rgb(16.1%,15.3%,14.1%);fill-opacity:1.0;font-family:helvetica;font-size:10.0px;font-weight:normal;stroke:none;vertical-align:baseline;white-space:pre">0.29</text></g></g><g class="toyplot-coordinates-Axis-coordinates" style="visibility:hidden" transform=""><line x1="0" x2="0" y1="-3.0" y2="4.5" style="stroke:rgb(43.9%,50.2%,56.5%);stroke-opacity:1.0;stroke-width:1.0" /><text x="0" y="-6" style="alignment-baseline:alphabetic;fill:rgb(43.9%,50.2%,56.5%);fill-opacity:1.0;font-size:10px;font-weight:normal;stroke:none;text-anchor:middle" /></g></g></g></svg>